#!OML:ASF F:\VICON\USERDATA\INSTALL\rory3\rory3.ASF
:FULLY-SPECIFIED
:DEGREES
973
root 0.937589 15.3588 4.26088 11.6645 -50.1287 12.7269
lowerback 4.99694 9.05615 7.13528
upperback 5.4639 12.3076 -4.39684
thorax 5.5246 6.61999 -8.34155
lowerneck -2.41293 -5.20121 -4.68712
upperneck 51.965 -13.8511 9.61968
head 25.0505 -5.42484 3.92428
rclavicle -6.91771e-014 4.29375e-014
rhumerus -47.6477 54.9702 -130.743
rradius 91.1034
rwrist -26.8482
rhand 26.9419 -27.0425
rfingers 7.12502
rthumb 50.9378 -47.7586
lclavicle -6.91771e-014 4.29375e-014
lhumerus -8.52009 -78.2063 88.5355
lradius 100.582
lwrist 29.8307
lhand -5.08734 -21.5483
lfingers 7.12502
lthumb 20.7095 7.36675
rfemur -66.145 -7.7834 9.54237
rtibia 86.8034
rfoot -15.5352 -16.0534
rtoes -26.2814
lfemur -57.366 -22.5901 -29.3809
ltibia 62.6007
lfoot -24.041 7.89986
ltoes 4.49343
974
root 0.93732 15.3508 4.25872 11.5396 -50.1372 12.822
lowerback 5.01227 9.02003 7.06551
upperback 5.50254 12.2571 -4.40485
thorax 5.53305 6.59297 -8.31645
lowerneck -2.44783 -5.19265 -4.74821
upperneck 52.0165 -13.824 9.58492
head 25.1264 -5.43147 3.92588
rclavicle -1.74931e-014 -2.8625e-014
rhumerus -47.7608 54.9566 -130.825
rradius 91.1045
rwrist -26.9019
rhand 26.3964 -26.4188
rfingers 7.12502
rthumb 50.44 -47.4074
lclavicle -1.74931e-014 -2.8625e-014
lhumerus -8.25353 -78.2036 88.2596
lradius 100.637
lwrist 29.8293
lhand -5.21869 -21.4823
lfingers 7.12502
lthumb 20.5833 7.44645
rfemur -66.1436 -7.80752 9.44868
rtibia 86.8915
rfoot -15.7132 -15.8458
rtoes -25.5997
lfemur -57.3384 -22.4465 -29.6102
ltibia 62.6317
lfoot -23.9996 7.94482
ltoes 4.71917
975
root 0.937759 15.3455 4.25512 11.4855 -50.107 12.889
lowerback 5.04877 8.99532 7.02888
upperback 5.44927 12.2257 -4.41334
thorax 5.44157 6.57107 -8.3202
lowerneck -2.36 -5.21769 -4.85933
upperneck 52.1332 -13.8504 9.5358
head 25.2493 -5.47464 3.92972
rclavicle -1.98785e-014 3.02153e-014
rhumerus -47.9496 54.8062 -130.944
rradius 91.1528
rwrist -26.8864
rhand 26.2309 -26.1066
rfingers 7.12502
rthumb 50.2888 -47.1764
lclavicle -1.98785e-014 3.02153e-014
lhumerus -8.76912 -78.2364 88.7816
lradius 100.684
lwrist 29.7751
lhand -5.24188 -21.376
lfingers 7.12502
lthumb 20.561 7.55512
rfemur -66.1425 -7.80326 9.31372
rtibia 86.9705
rfoot -16.1556 -15.4222
rtoes -24.0353
lfemur -57.3708 -22.4528 -29.6286
ltibia 62.6672
lfoot -23.9957 7.71779
ltoes 5.32031
976
root 0.937164 15.3434 4.25481 11.4738 -50.1048 12.9183
lowerback 5.06027 9.02379 7.00016
upperback 5.39421 12.2656 -4.43896
thorax 5.38349 6.5873 -8.33624
lowerneck -2.25368 -5.26808 -4.93456
upperneck 52.1611 -13.9908 9.65672
head 25.3337 -5.54148 4.00067
rclavicle -1.82882e-014 -4.45278e-014
rhumerus -47.9471 54.6025 -130.943
rradius 91.189
rwrist -26.8509
rhand 25.836 -25.898
rfingers 7.12502
rthumb 49.9276 -47.1587
lclavicle -1.82882e-014 -4.45278e-014
lhumerus -9.49742 -78.3209 89.5383
lradius 100.682
lwrist 29.7141
lhand -5.05628 -21.2886
lfingers 7.12502
lthumb 20.7393 7.62318
rfemur -66.1502 -7.77075 9.21244
rtibia 87.0264
rfoot -16.3773 -15.1429
rtoes -23.2777
lfemur -57.4118 -22.4466 -29.6293
ltibia 62.7012
lfoot -24.0659 7.49517
ltoes 5.91781
977
root 0.933467 15.3457 4.26194 11.3995 -50.2469 12.9948
lowerback 4.94878 9.08286 6.85753
upperback 5.43177 12.3359 -4.45409
thorax 5.47181 6.61978 -8.24825
lowerneck -2.2911 -5.29471 -4.91852
upperneck 52.164 -14.0597 9.68475
head 25.3834 -5.56205 4.0009
rclavicle 5.00937e-014 0
rhumerus -47.8431 54.5751 -130.838
rradius 91.209
rwrist -26.8765
rhand 25.7205 -25.73
rfingers 7.12502
rthumb 49.8218 -47.0458
lclavicle 5.00937e-014 0
lhumerus -9.77615 -78.279 89.8594
lradius 100.622
lwrist 29.5489
lhand -4.69917 -21.2483
lfingers 7.12502
lthumb 21.0824 7.62565
rfemur -66.1238 -7.7218 9.10101
rtibia 87.0415
rfoot -16.4584 -14.9328
rtoes -23.3575
lfemur -57.3365 -22.3405 -29.7534
ltibia 62.6935
lfoot -24.1146 7.51637
ltoes 5.89061
978
root 0.930278 15.3492 4.26716 11.3223 -50.3412 13.0506
lowerback 4.90368 9.0741 6.75114
upperback 5.39231 12.3181 -4.41471
thorax 5.41548 6.60012 -8.14821
lowerneck -2.12059 -5.23041 -5.02916
upperneck 52.2005 -13.9034 9.62094
head 25.301 -5.53823 4.02205
rclavicle -7.15625e-014 2.06736e-014
rhumerus -48.1419 54.525 -131.011
rradius 91.2329
rwrist -26.9638
rhand 25.9255 -25.7211
rfingers 7.12502
rthumb 50.0095 -46.9389
lclavicle -7.15625e-014 2.06736e-014
lhumerus -11.0072 -78.175 91.1307
lradius 100.588
lwrist 29.3736
lhand -4.90095 -21.0549
lfingers 7.12502
lthumb 20.8886 7.84047
rfemur -66.0694 -7.75846 9.05704
rtibia 87.0243
rfoot -16.4942 -14.8276
rtoes -23.7427
lfemur -57.2197 -22.2957 -29.833
ltibia 62.6349
lfoot -24.1508 7.51709
ltoes 6.12266
979
root 0.929259 15.349 4.26682 11.2262 -50.363 13.1029
lowerback 5.02339 9.03958 6.7045
upperback 5.29732 12.2752 -4.39169
thorax 5.22021 6.56606 -8.13324
lowerneck -1.8803 -5.17084 -5.21223
upperneck 52.2268 -13.8134 9.69944
head 25.2558 -5.54991 4.13587
rclavicle -2.8625e-014 4.13472e-014
rhumerus -48.6848 54.3272 -131.385
rradius 91.3169
rwrist -27.0329
rhand 26.1879 -25.9988
rfingers 7.12502
rthumb 50.2495 -47.0895
lclavicle -2.8625e-014 4.13472e-014
lhumerus -12.5154 -78.1714 92.628
lradius 100.599
lwrist 29.3028
lhand -5.71851 -20.8016
lfingers 7.12502
lthumb 20.1029 8.17838
rfemur -65.9995 -7.77446 8.99442
rtibia 87.0135
rfoot -16.5458 -14.7049
rtoes -23.4411
lfemur -57.1256 -22.2418 -29.9375
ltibia 62.5552
lfoot -24.0217 7.79518
ltoes 5.29385
